<svg xmlns="http://www.w3.org/2000/svg" width="1000" height="760" viewBox="0 0 1000 760">
<rect width="100%" height="100%" fill="white" />
<text x="500" y="48" text-anchor="middle" font-size="22">2.2 In the experience you shared, others behave...</text>
<path d="M 90 180 L 90 560 L 910 560" fill="none" stroke="#39424e" stroke-width="3" />
<g font-size="14"><text x="76" y="565.00" text-anchor="end">0%</text><text x="76" y="489.00" text-anchor="end">20%</text><text x="76" y="413.00" text-anchor="end">40%</text><text x="76" y="337.00" text-anchor="end">60%</text><text x="76" y="261.00" text-anchor="end">80%</text><text x="76" y="185.00" text-anchor="end">100%</text></g><rect x="92.00" y="459.34" width="70.55" height="100.66" fill="#2ca02c" /><rect x="92.00" y="215.23" width="70.55" height="244.11" fill="#d62728" /><rect x="92.00" y="180.00" width="70.55" height="35.23" fill="#7f7f7f" /><rect x="166.55" y="433.33" width="70.55" height="126.67" fill="#2ca02c" /><rect x="166.55" y="218.38" width="70.55" height="214.95" fill="#d62728" /><rect x="166.55" y="180.00" width="70.55" height="38.38" fill="#7f7f7f" /><rect x="241.09" y="435.97" width="70.55" height="124.03" fill="#2ca02c" /><rect x="241.09" y="206.39" width="70.55" height="229.58" fill="#d62728" /><rect x="241.09" y="180.00" width="70.55" height="26.39" fill="#7f7f7f" /><rect x="315.64" y="468.52" width="70.55" height="91.48" fill="#2ca02c" /><rect x="315.64" y="239.81" width="70.55" height="228.70" fill="#d62728" /><rect x="315.64" y="180.00" width="70.55" height="59.81" fill="#7f7f7f" /><rect x="390.18" y="450.00" width="70.55" height="110.00" fill="#2ca02c" /><rect x="390.18" y="240.00" width="70.55" height="210.00" fill="#d62728" /><rect x="390.18" y="180.00" width="70.55" height="60.00" fill="#7f7f7f" /><rect x="464.73" y="448.24" width="70.55" height="111.76" fill="#2ca02c" /><rect x="464.73" y="275.00" width="70.55" height="173.24" fill="#d62728" /><rect x="464.73" y="180.00" width="70.55" height="95.00" fill="#7f7f7f" /><rect x="539.27" y="416.81" width="70.55" height="143.19" fill="#2ca02c" /><rect x="539.27" y="213.04" width="70.55" height="203.77" fill="#d62728" /><rect x="539.27" y="180.00" width="70.55" height="33.04" fill="#7f7f7f" /><rect x="613.82" y="422.41" width="70.55" height="137.59" fill="#2ca02c" /><rect x="613.82" y="202.93" width="70.55" height="219.48" fill="#d62728" /><rect x="613.82" y="180.00" width="70.55" height="22.93" fill="#7f7f7f" /><rect x="688.36" y="425.42" width="70.55" height="134.58" fill="#2ca02c" /><rect x="688.36" y="232.78" width="70.55" height="192.64" fill="#d62728" /><rect x="688.36" y="180.00" width="70.55" height="52.78" fill="#7f7f7f" /><rect x="762.91" y="459.78" width="70.55" height="100.22" fill="#2ca02c" /><rect x="762.91" y="196.70" width="70.55" height="263.08" fill="#d62728" /><rect x="762.91" y="180.00" width="70.55" height="16.70" fill="#7f7f7f" /><rect x="837.45" y="488.51" width="70.55" height="71.49" fill="#2ca02c" /><rect x="837.45" y="206.34" width="70.55" height="282.18" fill="#d62728" /><rect x="837.45" y="180.00" width="70.55" height="26.34" fill="#7f7f7f" /><polyline points="92.00,180.00 162.55,180.00 166.55,180.00 166.55,310.86 237.09,310.86 241.09,310.86 241.09,197.62 311.64,197.62 315.64,197.62 315.64,288.21 386.18,288.21 390.18,288.21 390.18,464.37 460.73,464.37 464.73,464.37 464.73,388.87 535.27,388.87 539.27,388.87 539.27,386.36 609.82,386.36 613.82,386.36 613.82,268.08 684.36,268.08 688.36,268.08 688.36,197.62 758.91,197.62 762.91,197.62 762.91,330.99 833.45,330.99 837.45,330.99 837.45,305.83 908.00,305.83" fill="none" stroke="#111827" stroke-width="6" /><g font-size="14"><text x="127.27" y="588" text-anchor="middle" transform="rotate(35 127.27 588)">0.0</text><text x="201.82" y="588" text-anchor="middle" transform="rotate(35 201.82 588)">0.1</text><text x="276.36" y="588" text-anchor="middle" transform="rotate(35 276.36 588)">0.2</text><text x="350.91" y="588" text-anchor="middle" transform="rotate(35 350.91 588)">0.3</text><text x="425.45" y="588" text-anchor="middle" transform="rotate(35 425.45 588)">0.4</text><text x="500.00" y="588" text-anchor="middle" transform="rotate(35 500.00 588)">0.5</text><text x="574.55" y="588" text-anchor="middle" transform="rotate(35 574.55 588)">0.6</text><text x="649.09" y="588" text-anchor="middle" transform="rotate(35 649.09 588)">0.7</text><text x="723.64" y="588" text-anchor="middle" transform="rotate(35 723.64 588)">0.8</text><text x="798.18" y="588" text-anchor="middle" transform="rotate(35 798.18 588)">0.9</text><text x="872.73" y="588" text-anchor="middle" transform="rotate(35 872.73 588)">1.0</text></g><text x="90" y="645">As expected</text><text x="910" y="645" text-anchor="end">Unusually</text><g font-size="14"><path d="M 910 180 L 910 560" stroke="#111827" /><text x="924" y="565.00" fill="#111827">0</text><text x="924" y="486.99" fill="#111827">31</text><text x="924" y="408.97" fill="#111827">62</text><text x="924" y="330.96" fill="#111827">93</text><text x="924" y="252.95" fill="#111827">124</text><text x="924" y="185.00" fill="#111827">151</text><text x="952" y="162" text-anchor="middle" fill="#111827">Absolute count</text></g><g><text x="760" y="675" fill="#2ca02c">Positive</text><text x="835" y="675" fill="#d62728">Negative</text><text x="910" y="675" fill="#7f7f7f">Neutral</text></g>
</svg>