<svg xmlns="http://www.w3.org/2000/svg" width="1000" height="760" viewBox="0 0 1000 760">
<rect width="100%" height="100%" fill="white" />
<text x="500" y="48" text-anchor="middle" font-size="22">6.3 The experience you described was...</text>
<path d="M 90 180 L 90 560 L 910 560" fill="none" stroke="#39424e" stroke-width="3" />
<g font-size="14"><text x="76" y="565.00" text-anchor="end">0%</text><text x="76" y="489.00" text-anchor="end">20%</text><text x="76" y="413.00" text-anchor="end">40%</text><text x="76" y="337.00" text-anchor="end">60%</text><text x="76" y="261.00" text-anchor="end">80%</text><text x="76" y="185.00" text-anchor="end">100%</text></g><rect x="92.00" y="435.52" width="160.00" height="124.48" fill="#2ca02c" /><rect x="92.00" y="245.52" width="160.00" height="190.00" fill="#d62728" /><rect x="92.00" y="180.00" width="160.00" height="65.52" fill="#7f7f7f" /><rect x="256.00" y="375.14" width="160.00" height="184.86" fill="#2ca02c" /><rect x="256.00" y="203.96" width="160.00" height="171.17" fill="#d62728" /><rect x="256.00" y="180.00" width="160.00" height="23.96" fill="#7f7f7f" /><rect x="420.00" y="366.03" width="160.00" height="193.97" fill="#2ca02c" /><rect x="420.00" y="205.44" width="160.00" height="160.59" fill="#d62728" /><rect x="420.00" y="180.00" width="160.00" height="25.44" fill="#7f7f7f" /><rect x="584.00" y="452.19" width="160.00" height="107.81" fill="#2ca02c" /><rect x="584.00" y="228.03" width="160.00" height="224.16" fill="#d62728" /><rect x="584.00" y="180.00" width="160.00" height="48.03" fill="#7f7f7f" /><rect x="748.00" y="491.93" width="160.00" height="68.07" fill="#2ca02c" /><rect x="748.00" y="222.64" width="160.00" height="269.29" fill="#d62728" /><rect x="748.00" y="180.00" width="160.00" height="42.64" fill="#7f7f7f" /><text x="172.00" y="172" text-anchor="middle" font-size="12">58</text><text x="336.00" y="172" text-anchor="middle" font-size="12">111</text><text x="500.00" y="172" text-anchor="middle" font-size="12">239</text><text x="664.00" y="172" text-anchor="middle" font-size="12">356</text><text x="828.00" y="172" text-anchor="middle" font-size="12">508</text><polyline points="92.00,516.61 252.00,516.61 256.00,516.61 256.00,476.97 416.00,476.97 420.00,476.97 420.00,381.22 580.00,381.22 584.00,381.22 584.00,293.70 744.00,293.70 748.00,293.70 748.00,180.00 908.00,180.00" fill="none" stroke="#111827" stroke-width="6" /><g font-size="14"><text x="172.00" y="588" text-anchor="middle" transform="rotate(35 172.00 588)">not sure</text><text x="336.00" y="588" text-anchor="middle" transform="rotate(35 336.00 588)">a one time occurrence</text><text x="500.00" y="588" text-anchor="middle" transform="rotate(35 500.00 588)">rare but it happens from time to time</text><text x="664.00" y="588" text-anchor="middle" transform="rotate(35 664.00 588)">somewhat common</text><text x="828.00" y="588" text-anchor="middle" transform="rotate(35 828.00 588)">very common</text></g><g font-size="14"><path d="M 910 180 L 910 560" stroke="#111827" /><text x="924" y="565.00" fill="#111827">0</text><text x="924" y="488.70" fill="#111827">102</text><text x="924" y="412.40" fill="#111827">204</text><text x="924" y="336.10" fill="#111827">306</text><text x="924" y="259.80" fill="#111827">408</text><text x="924" y="185.00" fill="#111827">508</text><text x="952" y="162" text-anchor="middle" fill="#111827">Absolute count</text></g><g><text x="760" y="675" fill="#2ca02c">Positive</text><text x="835" y="675" fill="#d62728">Negative</text><text x="910" y="675" fill="#7f7f7f">Neutral</text></g>
</svg>