<svg xmlns="http://www.w3.org/2000/svg" width="1000" height="760" viewBox="0 0 1000 760">
<rect width="100%" height="100%" fill="white" />
<text x="500" y="48" text-anchor="middle" font-size="22">2.1 In the experience you shared, what matters most are...</text>
<path d="M 90 180 L 90 560 L 910 560" fill="none" stroke="#39424e" stroke-width="3" />
<g font-size="14"><text x="76" y="565.00" text-anchor="end">0%</text><text x="76" y="489.00" text-anchor="end">20%</text><text x="76" y="413.00" text-anchor="end">40%</text><text x="76" y="337.00" text-anchor="end">60%</text><text x="76" y="261.00" text-anchor="end">80%</text><text x="76" y="185.00" text-anchor="end">100%</text></g><rect x="92.00" y="408.00" width="70.55" height="152.00" fill="#2ca02c" /><rect x="92.00" y="180.00" width="70.55" height="228.00" fill="#d62728" /><rect x="92.00" y="180.00" width="70.55" height="0.00" fill="#7f7f7f" /><rect x="166.55" y="275.00" width="70.55" height="285.00" fill="#2ca02c" /><rect x="166.55" y="180.00" width="70.55" height="95.00" fill="#d62728" /><rect x="166.55" y="180.00" width="70.55" height="0.00" fill="#7f7f7f" /><rect x="241.09" y="505.71" width="70.55" height="54.29" fill="#2ca02c" /><rect x="241.09" y="180.00" width="70.55" height="325.71" fill="#d62728" /><rect x="241.09" y="180.00" width="70.55" height="0.00" fill="#7f7f7f" /><rect x="315.64" y="306.67" width="70.55" height="253.33" fill="#2ca02c" /><rect x="315.64" y="180.00" width="70.55" height="126.67" fill="#d62728" /><rect x="315.64" y="180.00" width="70.55" height="0.00" fill="#7f7f7f" /><rect x="390.18" y="180.00" width="70.55" height="380.00" fill="#2ca02c" /><rect x="390.18" y="180.00" width="70.55" height="0.00" fill="#d62728" /><rect x="390.18" y="180.00" width="70.55" height="0.00" fill="#7f7f7f" /><rect x="464.73" y="332.00" width="70.55" height="228.00" fill="#2ca02c" /><rect x="464.73" y="180.00" width="70.55" height="152.00" fill="#d62728" /><rect x="464.73" y="180.00" width="70.55" height="0.00" fill="#7f7f7f" /><rect x="539.27" y="370.00" width="70.55" height="190.00" fill="#2ca02c" /><rect x="539.27" y="180.00" width="70.55" height="190.00" fill="#d62728" /><rect x="539.27" y="180.00" width="70.55" height="0.00" fill="#7f7f7f" /><rect x="613.82" y="446.00" width="70.55" height="114.00" fill="#2ca02c" /><rect x="613.82" y="256.00" width="70.55" height="190.00" fill="#d62728" /><rect x="613.82" y="180.00" width="70.55" height="76.00" fill="#7f7f7f" /><rect x="688.36" y="458.67" width="70.55" height="101.33" fill="#2ca02c" /><rect x="688.36" y="205.33" width="70.55" height="253.33" fill="#d62728" /><rect x="688.36" y="180.00" width="70.55" height="25.33" fill="#7f7f7f" /><rect x="762.91" y="490.91" width="70.55" height="69.09" fill="#2ca02c" /><rect x="762.91" y="249.09" width="70.55" height="241.82" fill="#d62728" /><rect x="762.91" y="180.00" width="70.55" height="69.09" fill="#7f7f7f" /><rect x="837.45" y="471.33" width="70.55" height="88.67" fill="#2ca02c" /><rect x="837.45" y="256.00" width="70.55" height="215.33" fill="#d62728" /><rect x="837.45" y="180.00" width="70.55" height="76.00" fill="#7f7f7f" /><polyline points="92.00,496.67 162.55,496.67 166.55,496.67 166.55,509.33 237.09,509.33 241.09,509.33 241.09,471.33 311.64,471.33 315.64,471.33 315.64,484.00 386.18,484.00 390.18,484.00 390.18,547.33 460.73,547.33 464.73,547.33 464.73,496.67 535.27,496.67 539.27,496.67 539.27,484.00 609.82,484.00 613.82,484.00 613.82,433.33 684.36,433.33 688.36,433.33 688.36,370.00 758.91,370.00 762.91,370.00 762.91,420.67 833.45,420.67 837.45,420.67 837.45,180.00 908.00,180.00" fill="none" stroke="#111827" stroke-width="6" /><g font-size="14"><text x="127.27" y="588" text-anchor="middle" transform="rotate(35 127.27 588)">0.0 ()</text><text x="201.82" y="588" text-anchor="middle" transform="rotate(35 201.82 588)">0.1 ()</text><text x="276.36" y="588" text-anchor="middle" transform="rotate(35 276.36 588)">0.2 ()</text><text x="350.91" y="588" text-anchor="middle" transform="rotate(35 350.91 588)">0.3 ()</text><text x="425.45" y="588" text-anchor="middle" transform="rotate(35 425.45 588)">0.4 ()</text><text x="500.00" y="588" text-anchor="middle" transform="rotate(35 500.00 588)">0.5 ()</text><text x="574.55" y="588" text-anchor="middle" transform="rotate(35 574.55 588)">0.6 ()</text><text x="649.09" y="588" text-anchor="middle" transform="rotate(35 649.09 588)">0.7 ()</text><text x="723.64" y="588" text-anchor="middle" transform="rotate(35 723.64 588)">0.8 ()</text><text x="798.18" y="588" text-anchor="middle" transform="rotate(35 798.18 588)">0.9 ()</text><text x="872.73" y="588" text-anchor="middle" transform="rotate(35 872.73 588)">1.0 ()</text></g><text x="90" y="645">Values and traditions</text><text x="910" y="645" text-anchor="end">Change and innovation</text><g font-size="14"><path d="M 910 180 L 910 560" stroke="#111827" /><text x="924" y="565.00" fill="#111827">0</text><text x="924" y="489.00" fill="#111827">6</text><text x="924" y="413.00" fill="#111827">12</text><text x="924" y="337.00" fill="#111827">18</text><text x="924" y="261.00" fill="#111827">24</text><text x="924" y="185.00" fill="#111827">30</text><text x="952" y="162" text-anchor="middle" fill="#111827">Absolute count</text></g><g><text x="760" y="675" fill="#2ca02c">Positive</text><text x="835" y="675" fill="#d62728">Negative</text><text x="910" y="675" fill="#7f7f7f">Neutral</text></g>
</svg>