<svg xmlns="http://www.w3.org/2000/svg" width="1000" height="760" viewBox="0 0 1000 760">
<rect width="100%" height="100%" fill="white" />
<text x="500" y="48" text-anchor="middle" font-size="22">6.4 My experience is from..._</text>
<path d="M 90 180 L 90 560 L 910 560" fill="none" stroke="#39424e" stroke-width="3" />
<g font-size="14"><text x="76" y="565.00" text-anchor="end">0%</text><text x="76" y="489.00" text-anchor="end">20%</text><text x="76" y="413.00" text-anchor="end">40%</text><text x="76" y="337.00" text-anchor="end">60%</text><text x="76" y="261.00" text-anchor="end">80%</text><text x="76" y="185.00" text-anchor="end">100%</text></g><rect x="92.00" y="560.00" width="25.29" height="0.00" fill="#2ca02c" /><rect x="92.00" y="180.00" width="25.29" height="380.00" fill="#d62728" /><rect x="92.00" y="180.00" width="25.29" height="0.00" fill="#7f7f7f" /><rect x="121.29" y="560.00" width="25.29" height="0.00" fill="#2ca02c" /><rect x="121.29" y="234.29" width="25.29" height="325.71" fill="#d62728" /><rect x="121.29" y="180.00" width="25.29" height="54.29" fill="#7f7f7f" /><rect x="150.57" y="560.00" width="25.29" height="0.00" fill="#2ca02c" /><rect x="150.57" y="180.00" width="25.29" height="380.00" fill="#d62728" /><rect x="150.57" y="180.00" width="25.29" height="0.00" fill="#7f7f7f" /><rect x="179.86" y="560.00" width="25.29" height="0.00" fill="#2ca02c" /><rect x="179.86" y="180.00" width="25.29" height="380.00" fill="#d62728" /><rect x="179.86" y="180.00" width="25.29" height="0.00" fill="#7f7f7f" /><rect x="209.14" y="560.00" width="25.29" height="0.00" fill="#2ca02c" /><rect x="209.14" y="180.00" width="25.29" height="380.00" fill="#d62728" /><rect x="209.14" y="180.00" width="25.29" height="0.00" fill="#7f7f7f" /><rect x="238.43" y="560.00" width="25.29" height="0.00" fill="#2ca02c" /><rect x="238.43" y="370.00" width="25.29" height="190.00" fill="#d62728" /><rect x="238.43" y="180.00" width="25.29" height="190.00" fill="#7f7f7f" /><rect x="267.71" y="560.00" width="25.29" height="0.00" fill="#2ca02c" /><rect x="267.71" y="283.64" width="25.29" height="276.36" fill="#d62728" /><rect x="267.71" y="180.00" width="25.29" height="103.64" fill="#7f7f7f" /><rect x="297.00" y="541.00" width="25.29" height="19.00" fill="#2ca02c" /><rect x="297.00" y="180.00" width="25.29" height="361.00" fill="#d62728" /><rect x="297.00" y="180.00" width="25.29" height="0.00" fill="#7f7f7f" /><rect x="326.29" y="496.67" width="25.29" height="63.33" fill="#2ca02c" /><rect x="326.29" y="243.33" width="25.29" height="253.33" fill="#d62728" /><rect x="326.29" y="180.00" width="25.29" height="63.33" fill="#7f7f7f" /><rect x="355.57" y="484.00" width="25.29" height="76.00" fill="#2ca02c" /><rect x="355.57" y="180.00" width="25.29" height="304.00" fill="#d62728" /><rect x="355.57" y="180.00" width="25.29" height="0.00" fill="#7f7f7f" /><rect x="384.86" y="464.74" width="25.29" height="95.26" fill="#2ca02c" /><rect x="384.86" y="223.02" width="25.29" height="241.73" fill="#d62728" /><rect x="384.86" y="180.00" width="25.29" height="43.02" fill="#7f7f7f" /><rect x="414.14" y="454.44" width="25.29" height="105.56" fill="#2ca02c" /><rect x="414.14" y="243.33" width="25.29" height="211.11" fill="#d62728" /><rect x="414.14" y="180.00" width="25.29" height="63.33" fill="#7f7f7f" /><rect x="443.43" y="451.43" width="25.29" height="108.57" fill="#2ca02c" /><rect x="443.43" y="180.00" width="25.29" height="271.43" fill="#d62728" /><rect x="443.43" y="180.00" width="25.29" height="0.00" fill="#7f7f7f" /><rect x="472.71" y="451.43" width="25.29" height="108.57" fill="#2ca02c" /><rect x="472.71" y="288.57" width="25.29" height="162.86" fill="#d62728" /><rect x="472.71" y="180.00" width="25.29" height="108.57" fill="#7f7f7f" /><rect x="502.00" y="447.87" width="25.29" height="112.13" fill="#2ca02c" /><rect x="502.00" y="211.15" width="25.29" height="236.72" fill="#d62728" /><rect x="502.00" y="180.00" width="25.29" height="31.15" fill="#7f7f7f" /><rect x="531.29" y="446.57" width="25.29" height="113.43" fill="#2ca02c" /><rect x="531.29" y="225.37" width="25.29" height="221.19" fill="#d62728" /><rect x="531.29" y="180.00" width="25.29" height="45.37" fill="#7f7f7f" /><rect x="560.57" y="440.57" width="25.29" height="119.43" fill="#2ca02c" /><rect x="560.57" y="223.43" width="25.29" height="217.14" fill="#d62728" /><rect x="560.57" y="180.00" width="25.29" height="43.43" fill="#7f7f7f" /><rect x="589.86" y="435.00" width="25.29" height="125.00" fill="#2ca02c" /><rect x="589.86" y="210.00" width="25.29" height="225.00" fill="#d62728" /><rect x="589.86" y="180.00" width="25.29" height="30.00" fill="#7f7f7f" /><rect x="619.14" y="434.41" width="25.29" height="125.59" fill="#2ca02c" /><rect x="619.14" y="218.64" width="25.29" height="215.76" fill="#d62728" /><rect x="619.14" y="180.00" width="25.29" height="38.64" fill="#7f7f7f" /><rect x="648.43" y="433.33" width="25.29" height="126.67" fill="#2ca02c" /><rect x="648.43" y="201.11" width="25.29" height="232.22" fill="#d62728" /><rect x="648.43" y="180.00" width="25.29" height="21.11" fill="#7f7f7f" /><rect x="677.71" y="433.33" width="25.29" height="126.67" fill="#2ca02c" /><rect x="677.71" y="180.00" width="25.29" height="253.33" fill="#d62728" /><rect x="677.71" y="180.00" width="25.29" height="0.00" fill="#7f7f7f" /><rect x="707.00" y="433.33" width="25.29" height="126.67" fill="#2ca02c" /><rect x="707.00" y="180.00" width="25.29" height="253.33" fill="#d62728" /><rect x="707.00" y="180.00" width="25.29" height="0.00" fill="#7f7f7f" /><rect x="736.29" y="426.80" width="25.29" height="133.20" fill="#2ca02c" /><rect x="736.29" y="219.18" width="25.29" height="207.63" fill="#d62728" /><rect x="736.29" y="180.00" width="25.29" height="39.18" fill="#7f7f7f" /><rect x="765.57" y="415.18" width="25.29" height="144.82" fill="#2ca02c" /><rect x="765.57" y="223.32" width="25.29" height="191.86" fill="#d62728" /><rect x="765.57" y="180.00" width="25.29" height="43.32" fill="#7f7f7f" /><rect x="794.86" y="408.00" width="25.29" height="152.00" fill="#2ca02c" /><rect x="794.86" y="180.00" width="25.29" height="228.00" fill="#d62728" /><rect x="794.86" y="180.00" width="25.29" height="0.00" fill="#7f7f7f" /><rect x="824.14" y="370.00" width="25.29" height="190.00" fill="#2ca02c" /><rect x="824.14" y="180.00" width="25.29" height="190.00" fill="#d62728" /><rect x="824.14" y="180.00" width="25.29" height="0.00" fill="#7f7f7f" /><rect x="853.43" y="306.67" width="25.29" height="253.33" fill="#2ca02c" /><rect x="853.43" y="180.00" width="25.29" height="126.67" fill="#d62728" /><rect x="853.43" y="180.00" width="25.29" height="0.00" fill="#7f7f7f" /><rect x="882.71" y="560.00" width="25.29" height="0.00" fill="#2ca02c" /><rect x="882.71" y="234.29" width="25.29" height="325.71" fill="#d62728" /><rect x="882.71" y="180.00" width="25.29" height="54.29" fill="#7f7f7f" /><text x="104.64" y="172" text-anchor="middle" font-size="12">1</text><text x="133.93" y="172" text-anchor="middle" font-size="12">7</text><text x="163.21" y="172" text-anchor="middle" font-size="12">1</text><text x="192.50" y="172" text-anchor="middle" font-size="12">1</text><text x="221.79" y="172" text-anchor="middle" font-size="12">1</text><text x="251.07" y="172" text-anchor="middle" font-size="12">2</text><text x="280.36" y="172" text-anchor="middle" font-size="12">11</text><text x="309.64" y="172" text-anchor="middle" font-size="12">20</text><text x="338.93" y="172" text-anchor="middle" font-size="12">6</text><text x="368.21" y="172" text-anchor="middle" font-size="12">5</text><text x="397.50" y="172" text-anchor="middle" font-size="12">371</text><text x="426.79" y="172" text-anchor="middle" font-size="12">18</text><text x="456.07" y="172" text-anchor="middle" font-size="12">7</text><text x="485.36" y="172" text-anchor="middle" font-size="12">7</text><text x="514.64" y="172" text-anchor="middle" font-size="12">61</text><text x="543.93" y="172" text-anchor="middle" font-size="12">67</text><text x="573.21" y="172" text-anchor="middle" font-size="12">35</text><text x="602.50" y="172" text-anchor="middle" font-size="12">76</text><text x="631.79" y="172" text-anchor="middle" font-size="12">118</text><text x="661.07" y="172" text-anchor="middle" font-size="12">18</text><text x="690.36" y="172" text-anchor="middle" font-size="12">3</text><text x="719.64" y="172" text-anchor="middle" font-size="12">3</text><text x="748.93" y="172" text-anchor="middle" font-size="12">97</text><text x="778.21" y="172" text-anchor="middle" font-size="12">307</text><text x="807.50" y="172" text-anchor="middle" font-size="12">15</text><text x="836.79" y="172" text-anchor="middle" font-size="12">4</text><text x="866.07" y="172" text-anchor="middle" font-size="12">3</text><text x="895.36" y="172" text-anchor="middle" font-size="12">7</text><polyline points="92.00,558.98 117.29,558.98 121.29,558.98 121.29,552.83 146.57,552.83 150.57,552.83 150.57,558.98 175.86,558.98 179.86,558.98 179.86,558.98 205.14,558.98 209.14,558.98 209.14,558.98 234.43,558.98 238.43,558.98 238.43,557.95 263.71,557.95 267.71,557.95 267.71,548.73 293.00,548.73 297.00,548.73 297.00,539.51 322.29,539.51 326.29,539.51 326.29,553.85 351.57,553.85 355.57,553.85 355.57,554.88 380.86,554.88 384.86,554.88 384.86,180.00 410.14,180.00 414.14,180.00 414.14,541.56 439.43,541.56 443.43,541.56 443.43,552.83 468.71,552.83 472.71,552.83 472.71,552.83 498.00,552.83 502.00,552.83 502.00,497.52 527.29,497.52 531.29,497.52 531.29,491.37 556.57,491.37 560.57,491.37 560.57,524.15 585.86,524.15 589.86,524.15 589.86,482.16 615.14,482.16 619.14,482.16 619.14,439.14 644.43,439.14 648.43,439.14 648.43,541.56 673.71,541.56 677.71,541.56 677.71,556.93 703.00,556.93 707.00,556.93 707.00,556.93 732.29,556.93 736.29,556.93 736.29,460.65 761.57,460.65 765.57,460.65 765.57,245.55 790.86,245.55 794.86,245.55 794.86,544.64 820.14,544.64 824.14,544.64 824.14,555.90 849.43,555.90 853.43,555.90 853.43,556.93 878.71,556.93 882.71,556.93 882.71,552.83 908.00,552.83" fill="none" stroke="#111827" stroke-width="6" /><g font-size="14"><text x="104.64" y="588" text-anchor="middle" transform="rotate(35 104.64 588)">Bulgaria</text><text x="133.93" y="588" text-anchor="middle" transform="rotate(35 133.93 588)">Finland</text><text x="163.21" y="588" text-anchor="middle" transform="rotate(35 163.21 588)">Lativa</text><text x="192.50" y="588" text-anchor="middle" transform="rotate(35 192.50 588)">Luxembourg</text><text x="221.79" y="588" text-anchor="middle" transform="rotate(35 221.79 588)">Romania</text><text x="251.07" y="588" text-anchor="middle" transform="rotate(35 251.07 588)">Slovenia</text><text x="280.36" y="588" text-anchor="middle" transform="rotate(35 280.36 588)">Sweden</text><text x="309.64" y="588" text-anchor="middle" transform="rotate(35 309.64 588)">Cyprus</text><text x="338.93" y="588" text-anchor="middle" transform="rotate(35 338.93 588)">Slovakia</text><text x="368.21" y="588" text-anchor="middle" transform="rotate(35 368.21 588)">Greece</text><text x="397.50" y="588" text-anchor="middle" transform="rotate(35 397.50 588)">Germany</text><text x="426.79" y="588" text-anchor="middle" transform="rotate(35 426.79 588)">Austria</text><text x="456.07" y="588" text-anchor="middle" transform="rotate(35 456.07 588)">Czechia</text><text x="485.36" y="588" text-anchor="middle" transform="rotate(35 485.36 588)">Poland</text><text x="514.64" y="588" text-anchor="middle" transform="rotate(35 514.64 588)">Belgium</text><text x="543.93" y="588" text-anchor="middle" transform="rotate(35 543.93 588)">France</text><text x="573.21" y="588" text-anchor="middle" transform="rotate(35 573.21 588)">Spain</text><text x="602.50" y="588" text-anchor="middle" transform="rotate(35 602.50 588)">NA</text><text x="631.79" y="588" text-anchor="middle" transform="rotate(35 631.79 588)">Italy</text><text x="661.07" y="588" text-anchor="middle" transform="rotate(35 661.07 588)">Portugal</text><text x="690.36" y="588" text-anchor="middle" transform="rotate(35 690.36 588)">Türkiye</text><text x="719.64" y="588" text-anchor="middle" transform="rotate(35 719.64 588)">UK</text><text x="748.93" y="588" text-anchor="middle" transform="rotate(35 748.93 588)">Other</text><text x="778.21" y="588" text-anchor="middle" transform="rotate(35 778.21 588)">Netherlands</text><text x="807.50" y="588" text-anchor="middle" transform="rotate(35 807.50 588)">Switzerland</text><text x="836.79" y="588" text-anchor="middle" transform="rotate(35 836.79 588)">Denmark</text><text x="866.07" y="588" text-anchor="middle" transform="rotate(35 866.07 588)">Norway</text><text x="895.36" y="588" text-anchor="middle" transform="rotate(35 895.36 588)">Unknown</text></g><g font-size="14"><path d="M 910 180 L 910 560" stroke="#111827" /><text x="924" y="565.00" fill="#111827">0</text><text x="924" y="488.18" fill="#111827">75</text><text x="924" y="411.36" fill="#111827">150</text><text x="924" y="334.54" fill="#111827">225</text><text x="924" y="257.72" fill="#111827">300</text><text x="924" y="185.00" fill="#111827">371</text><text x="952" y="162" text-anchor="middle" fill="#111827">Absolute count</text></g><g><text x="760" y="675" fill="#2ca02c">Positive</text><text x="835" y="675" fill="#d62728">Negative</text><text x="910" y="675" fill="#7f7f7f">Neutral</text></g>
</svg>