<svg xmlns="http://www.w3.org/2000/svg" width="1000" height="760" viewBox="0 0 1000 760">
<rect width="100%" height="100%" fill="white" />
<text x="500" y="48" text-anchor="middle" font-family="sans-serif" font-size="22">3.1 The experience you shared relates to...</text>
<path d="M 120 620 L 720 620 L 420.0 100.38 Z" fill="none" stroke="#39424e" stroke-width="2" />
<g fill-opacity="0.65"><circle cx="169.72" cy="594.63" r="6" fill="#d62728" /><circle cx="258.85" cy="472.72" r="6" fill="#d62728" /><circle cx="421.03" cy="192.89" r="6" fill="#d62728" /><circle cx="426.50" cy="254.68" r="6" fill="#7f7f7f" /><circle cx="440.71" cy="185.85" r="6" fill="#7f7f7f" /><circle cx="423.64" cy="440.36" r="6" fill="#d62728" /><circle cx="533.57" cy="370.23" r="6" fill="#2ca02c" /><circle cx="564.65" cy="471.54" r="6" fill="#d62728" /><circle cx="348.60" cy="345.28" r="6" fill="#d62728" /><circle cx="467.96" cy="379.51" r="6" fill="#2ca02c" /><circle cx="406.56" cy="221.23" r="6" fill="#2ca02c" /><circle cx="529.83" cy="441.12" r="6" fill="#2ca02c" /><circle cx="400.00" cy="250.35" r="6" fill="#d62728" /><circle cx="411.85" cy="289.12" r="6" fill="#2ca02c" /><circle cx="378.58" cy="474.17" r="6" fill="#d62728" /><circle cx="512.87" cy="376.34" r="6" fill="#d62728" /><circle cx="701.42" cy="611.24" r="6" fill="#d62728" /><circle cx="414.79" cy="116.78" r="6" fill="#2ca02c" /><circle cx="445.47" cy="388.54" r="6" fill="#d62728" /><circle cx="535.46" cy="345.28" r="6" fill="#2ca02c" /><circle cx="477.06" cy="218.42" r="6" fill="#d62728" /><circle cx="511.19" cy="262.08" r="6" fill="#2ca02c" /><circle cx="321.62" cy="293.58" r="6" fill="#2ca02c" /><circle cx="430.38" cy="564.21" r="6" fill="#2ca02c" /><circle cx="669.83" cy="601.33" r="6" fill="#d62728" /><circle cx="297.60" cy="351.34" r="6" fill="#d62728" /><circle cx="412.59" cy="226.74" r="6" fill="#2ca02c" /><circle cx="584.34" cy="464.50" r="6" fill="#2ca02c" /><circle cx="519.12" cy="487.54" r="6" fill="#d62728" /><circle cx="433.63" cy="124.01" r="6" fill="#d62728" /><circle cx="442.95" cy="140.14" r="6" fill="#d62728" /><circle cx="521.51" cy="375.04" r="6" fill="#d62728" /><circle cx="562.17" cy="453.36" r="6" fill="#d62728" /><circle cx="404.33" cy="308.88" r="6" fill="#d62728" /><circle cx="420.00" cy="100.39" r="6" fill="#7f7f7f" /><circle cx="354.52" cy="440.28" r="6" fill="#d62728" /><circle cx="429.84" cy="117.45" r="6" fill="#d62728" /><circle cx="386.97" cy="379.55" r="6" fill="#d62728" /><circle cx="383.70" cy="202.01" r="6" fill="#2ca02c" /><circle cx="540.16" cy="424.60" r="6" fill="#d62728" /><circle cx="207.27" cy="574.33" r="6" fill="#d62728" /><circle cx="408.51" cy="193.62" r="6" fill="#d62728" /><circle cx="502.30" cy="242.99" r="6" fill="#d62728" /><circle cx="403.41" cy="208.33" r="6" fill="#d62728" /><circle cx="555.96" cy="493.87" r="6" fill="#d62728" /><circle cx="450.21" cy="422.86" r="6" fill="#d62728" /><circle cx="407.59" cy="315.39" r="6" fill="#7f7f7f" /><circle cx="529.62" cy="396.76" r="6" fill="#d62728" /><circle cx="537.21" cy="379.19" r="6" fill="#d62728" /><circle cx="405.27" cy="460.01" r="6" fill="#d62728" /><circle cx="544.37" cy="531.28" r="6" fill="#2ca02c" /><circle cx="631.87" cy="467.37" r="6" fill="#2ca02c" /><circle cx="564.03" cy="365.80" r="6" fill="#d62728" /><circle cx="404.87" cy="292.13" r="6" fill="#d62728" /><circle cx="550.16" cy="371.68" r="6" fill="#2ca02c" /><circle cx="554.09" cy="367.21" r="6" fill="#d62728" /><circle cx="462.36" cy="238.31" r="6" fill="#2ca02c" /><circle cx="551.50" cy="351.91" r="6" fill="#d62728" /><circle cx="394.49" cy="457.19" r="6" fill="#d62728" /><circle cx="420.00" cy="100.39" r="6" fill="#d62728" /><circle cx="407.32" cy="134.92" r="6" fill="#2ca02c" /><circle cx="428.43" cy="115.00" r="6" fill="#d62728" /><circle cx="421.87" cy="103.63" r="6" fill="#d62728" /><circle cx="431.77" cy="150.27" r="6" fill="#d62728" /><circle cx="709.68" cy="602.14" r="6" fill="#d62728" /><circle cx="420.16" cy="184.53" r="6" fill="#d62728" /><circle cx="455.80" cy="226.94" r="6" fill="#d62728" /><circle cx="443.78" cy="194.91" r="6" fill="#2ca02c" /><circle cx="427.06" cy="454.93" r="6" fill="#d62728" /><circle cx="175.80" cy="594.28" r="6" fill="#2ca02c" /><circle cx="450.37" cy="336.45" r="6" fill="#7f7f7f" /><circle cx="431.69" cy="120.65" r="6" fill="#d62728" /><circle cx="332.61" cy="308.89" r="6" fill="#d62728" /><circle cx="672.36" cy="602.04" r="6" fill="#7f7f7f" /><circle cx="379.16" cy="329.64" r="6" fill="#2ca02c" /><circle cx="483.27" cy="401.61" r="6" fill="#2ca02c" /><circle cx="536.68" cy="370.77" r="6" fill="#2ca02c" /><circle cx="312.72" cy="435.12" r="6" fill="#2ca02c" /><circle cx="475.10" cy="473.44" r="6" fill="#d62728" /><circle cx="429.82" cy="267.92" r="6" fill="#2ca02c" /><circle cx="563.43" cy="348.83" r="6" fill="#d62728" /><circle cx="408.88" cy="295.17" r="6" fill="#2ca02c" /><circle cx="548.89" cy="515.27" r="6" fill="#2ca02c" /><circle cx="410.18" cy="327.90" r="6" fill="#d62728" /><circle cx="336.27" cy="300.28" r="6" fill="#d62728" /><circle cx="432.63" cy="231.66" r="6" fill="#d62728" /><circle cx="156.53" cy="584.89" r="6" fill="#2ca02c" /><circle cx="220.95" cy="579.03" r="6" fill="#2ca02c" /><circle cx="664.47" cy="595.98" r="6" fill="#d62728" /><circle cx="230.98" cy="428.18" r="6" fill="#2ca02c" /><circle cx="441.51" cy="604.28" r="6" fill="#2ca02c" /><circle cx="719.06" cy="618.38" r="6" fill="#2ca02c" /><circle cx="524.77" cy="281.87" r="6" fill="#7f7f7f" /><circle cx="542.60" cy="312.75" r="6" fill="#2ca02c" /><circle cx="419.56" cy="119.15" r="6" fill="#d62728" /><circle cx="519.67" cy="535.22" r="6" fill="#d62728" /><circle cx="527.91" cy="377.83" r="6" fill="#2ca02c" /><circle cx="425.66" cy="211.11" r="6" fill="#d62728" /><circle cx="418.72" cy="269.42" r="6" fill="#7f7f7f" /><circle cx="576.00" cy="370.59" r="6" fill="#d62728" /><circle cx="436.01" cy="264.42" r="6" fill="#d62728" /><circle cx="615.96" cy="515.52" r="6" fill="#2ca02c" /><circle cx="418.38" cy="135.96" r="6" fill="#d62728" /><circle cx="272.13" cy="361.13" r="6" fill="#d62728" /><circle cx="569.06" cy="358.57" r="6" fill="#2ca02c" /><circle cx="502.25" cy="403.64" r="6" fill="#7f7f7f" /><circle cx="278.18" cy="364.13" r="6" fill="#d62728" /><circle cx="417.87" cy="127.60" r="6" fill="#2ca02c" /><circle cx="301.19" cy="370.33" r="6" fill="#2ca02c" /><circle cx="284.23" cy="367.13" r="6" fill="#2ca02c" /><circle cx="555.26" cy="373.03" r="6" fill="#7f7f7f" /><circle cx="415.06" cy="122.72" r="6" fill="#7f7f7f" /><circle cx="564.63" cy="354.63" r="6" fill="#d62728" /><circle cx="572.13" cy="367.62" r="6" fill="#7f7f7f" /><circle cx="533.03" cy="406.80" r="6" fill="#d62728" /><circle cx="540.61" cy="386.91" r="6" fill="#d62728" /></g>
<g font-family="sans-serif" font-size="16">
<text x="108" y="654">The past</text>
<text x="732" y="654" text-anchor="end">The future</text>
<text x="420.0" y="82.38" text-anchor="middle">The present</text>
</g>
<text x="760" y="725" text-anchor="middle" font-size="14" fill="#2ca02c">Positive</text><text x="835" y="725" text-anchor="middle" font-size="14" fill="#d62728">Negative</text><text x="910" y="725" text-anchor="middle" font-size="14" fill="#7f7f7f">Neutral</text>
</svg>
